<?xml version="1.0" standalone="no"?>
<!DOCTYPE svg PUBLIC "-//W3C//DTD SVG 20010904//EN"
 "http://www.w3.org/TR/2001/REC-SVG-20010904/DTD/svg10.dtd">
<svg version="1.0" xmlns="http://www.w3.org/2000/svg"
 width="602.000000pt" height="611.000000pt" viewBox="0 0 602.000000 611.000000"
 preserveAspectRatio="xMidYMid meet">
<g transform="translate(0.000000,611.000000) scale(0.100000,-0.100000)"
fill="#FFFFFF" stroke="none">
<path d="M2766 6063 l-58 -4 6 -107 c4 -59 9 -151 13 -206 l6 -99 81 7 c44 3
107 6 139 6 l57 0 0 41 0 41 -105 -7 -105 -7 0 50 c0 54 9 62 78 62 30 0 32 2
32 35 l0 35 -60 0 -60 0 0 40 0 40 64 0 c35 0 78 3 95 6 27 6 31 10 31 40 l0
34 -77 -2 c-43 -1 -104 -3 -137 -5z"/>
<path d="M3266 6044 c-3 -11 -10 -57 -16 -104 -6 -47 -17 -127 -25 -179 -8
-52 -12 -98 -9 -103 3 -4 20 -8 38 -8 l34 0 11 93 c7 50 16 108 20 127 l8 35
22 -50 c12 -27 41 -92 64 -142 41 -92 42 -93 77 -93 l36 0 27 197 c15 108 26
198 24 199 -1 1 -18 4 -38 8 l-35 6 -13 -107 c-8 -60 -17 -116 -20 -126 -5
-14 -23 18 -66 115 -32 73 -60 134 -61 136 -1 2 -17 5 -37 9 -28 4 -36 2 -41
-13z"/>
<path d="M2358 6003 c-10 -2 -18 -6 -18 -9 0 -2 16 -65 35 -139 37 -143 36
-173 -4 -194 -30 -17 -76 -13 -94 7 -21 22 -38 71 -67 191 l-24 93 -34 -6
c-19 -3 -36 -7 -38 -9 -6 -6 62 -261 79 -294 27 -51 63 -73 119 -73 58 0 104
18 137 54 40 42 40 112 1 261 -35 133 -35 133 -92 118z"/>
<path d="M3891 5907 c-40 -14 -71 -65 -71 -115 0 -33 12 -47 120 -141 29 -24
33 -33 24 -47 -21 -34 -40 -39 -83 -19 -23 10 -41 21 -41 24 -1 3 -10 17 -20
30 -18 21 -23 22 -50 11 -37 -15 -38 -33 -4 -77 36 -47 92 -73 160 -73 50 0
59 3 85 31 37 40 47 92 25 133 -9 17 -43 53 -76 79 -61 48 -69 64 -48 85 22
22 59 13 96 -24 32 -32 37 -34 64 -23 16 7 28 19 28 30 0 27 -64 84 -109 97
-46 14 -56 14 -100 -1z"/>
<path d="M1703 5779 c-60 -17 -113 -93 -113 -162 0 -90 82 -213 159 -235 55
-17 71 -15 127 13 31 16 52 21 58 15 18 -18 33 -11 47 21 11 28 10 33 -4 44
-12 9 -17 27 -17 68 0 102 -58 196 -142 231 -41 18 -67 19 -115 5z m103 -85
c30 -20 69 -86 79 -132 6 -31 6 -32 -18 -23 -21 8 -28 6 -41 -14 -20 -30 -20
-41 0 -49 25 -10 6 -26 -31 -26 -25 0 -40 8 -65 37 -67 75 -78 147 -31 194 33
33 69 37 107 13z"/>
<path d="M4567 5395 c-64 -85 -117 -159 -117 -166 0 -14 29 -38 46 -39 6 0 45
43 85 95 40 52 75 93 77 91 4 -4 -14 -217 -23 -271 -4 -26 0 -33 26 -49 17
-10 32 -16 33 -14 66 76 236 304 236 316 0 6 -12 19 -26 29 -23 15 -28 15 -38
2 -71 -94 -140 -179 -143 -175 -2 2 3 68 11 147 l15 144 -27 22 c-15 12 -30
22 -33 23 -3 0 -58 -70 -122 -155z"/>
<path d="M1208 5469 c-51 -38 -95 -74 -96 -80 -5 -12 227 -319 241 -319 16 0
197 139 204 157 8 19 -9 47 -30 51 -9 2 -49 -21 -89 -52 l-72 -54 -30 40 -29
40 29 24 c16 13 32 23 37 24 12 0 8 45 -5 58 -18 18 -37 15 -70 -13 -36 -30
-44 -29 -66 8 -15 24 -15 29 -2 37 53 33 130 95 130 105 0 14 -32 45 -47 45
-6 0 -53 -32 -105 -71z"/>
<path d="M2973 5325 c-7 -7 -60 -109 -119 -226 -58 -118 -107 -215 -108 -216
-2 -2 -116 -13 -254 -26 -139 -13 -254 -26 -257 -28 -5 -5 291 -292 326 -317
10 -7 19 -19 19 -26 0 -7 -22 -67 -49 -132 -26 -66 -52 -129 -55 -141 l-7 -23
945 0 946 0 0 -565 0 -565 -1370 0 -1370 0 0 565 0 565 332 2 332 3 17 58 17
57 -414 0 -414 0 0 -1223 c0 -1187 1 -1226 19 -1281 25 -71 43 -104 108 -191
89 -122 233 -262 383 -374 41 -31 81 -61 87 -68 33 -31 274 -169 393 -227 190
-90 424 -166 513 -166 43 0 243 57 347 98 466 186 945 561 1097 860 l38 75 3
1249 2 1248 -914 2 -914 3 39 94 c21 51 39 99 39 106 0 7 -48 57 -106 111 -71
66 -101 100 -92 104 7 4 54 10 103 14 50 4 114 10 143 13 l53 6 72 143 c39 79
74 144 78 144 4 0 39 -65 79 -144 l71 -143 52 -6 c29 -3 93 -9 142 -13 50 -4
96 -10 103 -14 9 -4 -17 -35 -82 -97 -53 -50 -96 -94 -96 -100 0 -5 18 -26 40
-48 l39 -38 73 66 c180 164 322 307 313 315 -6 5 -120 19 -254 31 -135 12
-246 23 -247 24 -1 1 -53 104 -115 229 -91 180 -116 224 -126 213z m-1198
-2442 c223 -210 423 -401 518 -492 l108 -104 34 33 c19 19 35 42 35 51 0 9
-21 35 -46 58 -25 22 -125 116 -222 209 -97 93 -211 201 -252 240 l-75 72 193
0 c105 0 192 -2 192 -4 0 -2 -29 -32 -65 -67 -36 -34 -65 -67 -65 -73 1 -13
56 -76 67 -76 5 0 60 50 123 110 l115 109 90 0 90 0 70 -65 c149 -140 227
-214 414 -393 106 -102 200 -188 208 -189 19 -5 73 46 73 69 0 9 -19 34 -42
55 -24 21 -126 117 -228 214 -102 97 -216 207 -255 243 l-70 66 193 1 c105 0
192 -3 191 -7 0 -5 -29 -33 -64 -63 -35 -30 -64 -62 -64 -71 -1 -21 53 -72 72
-67 9 1 65 49 125 106 l110 102 90 0 89 0 139 -132 c76 -72 191 -181 255 -242
261 -250 289 -276 301 -276 18 0 68 51 68 70 0 10 -30 45 -67 80 -38 35 -144
136 -238 225 -93 89 -197 187 -230 218 l-60 57 193 0 c105 0 192 -2 192 -4 0
-2 -29 -32 -65 -67 -36 -34 -65 -67 -65 -73 0 -17 52 -66 70 -66 10 0 66 47
126 105 l109 105 53 0 52 0 0 -309 c0 -170 -4 -311 -9 -313 -17 -6 -401 -381
-401 -391 0 -17 52 -67 69 -67 17 1 68 46 232 206 53 52 99 94 103 94 3 0 6
-66 6 -147 0 -142 -1 -150 -29 -208 -31 -66 -116 -184 -138 -192 -8 -3 -22 3
-32 13 -10 11 -101 98 -202 194 -101 96 -230 219 -285 273 -56 53 -107 97
-112 97 -14 0 -72 -62 -72 -76 0 -6 30 -40 68 -74 37 -34 141 -133 232 -219
91 -87 198 -188 237 -226 40 -37 73 -72 73 -78 0 -28 -362 -317 -397 -317 -5
0 -35 27 -68 60 -33 33 -64 60 -69 60 -14 0 -76 -61 -76 -75 0 -6 25 -33 56
-60 l56 -48 -44 -26 c-91 -56 -419 -191 -463 -191 -12 0 -22 9 -252 227 -99
95 -185 173 -190 173 -14 0 -73 -61 -73 -74 0 -11 63 -73 273 -268 40 -37 67
-67 60 -68 -34 -1 -276 91 -402 152 l-144 70 104 102 c57 55 184 177 282 270
97 93 177 174 177 180 0 17 -53 66 -71 66 -15 0 -40 -23 -289 -260 -91 -86
-196 -187 -235 -223 l-70 -66 -35 21 c-92 53 -360 275 -360 298 0 4 34 41 75
81 41 40 75 78 75 85 0 6 -16 26 -36 44 l-36 32 -32 -30 c-94 -88 -129 -117
-137 -117 -13 0 -94 111 -129 176 -30 56 -30 58 -30 217 0 145 2 162 19 174
10 7 96 87 191 178 94 91 176 167 181 168 28 11 -26 92 -60 92 -16 0 -77 -55
-237 -211 -45 -43 -84 -79 -88 -79 -3 0 -6 137 -6 305 l0 305 43 0 c38 -1 49
-7 112 -67z"/>
<path d="M2775 2563 c-38 -36 -149 -140 -245 -232 -96 -91 -223 -211 -281
-266 -59 -55 -110 -108 -114 -118 -5 -13 1 -27 21 -48 47 -49 15 -72 379 275
304 290 395 379 395 390 0 16 -52 66 -69 66 -9 0 -47 -30 -86 -67z"/>
<path d="M3690 2567 c-173 -165 -435 -414 -454 -430 -64 -56 -196 -192 -196
-202 0 -7 16 -27 36 -45 l36 -31 56 52 c32 29 64 60 73 68 68 66 231 221 309
295 182 171 290 279 290 289 0 17 -52 67 -69 67 -9 0 -45 -28 -81 -63z"/>
<path d="M1702 2167 c-18 -18 -32 -38 -32 -43 0 -6 30 -39 68 -74 37 -35 110
-104 162 -154 52 -50 143 -136 201 -191 57 -55 146 -139 196 -187 51 -49 98
-88 105 -88 8 0 29 16 48 35 l34 35 -70 68 c-38 37 -117 112 -174 166 -151
144 -313 298 -406 388 -45 43 -86 78 -91 78 -5 0 -23 -15 -41 -33z"/>
<path d="M2611 2168 c-17 -18 -31 -38 -31 -44 0 -6 24 -33 53 -60 51 -47 457
-433 649 -616 10 -10 24 -18 31 -18 18 0 67 52 67 72 0 8 -35 48 -77 88 -43
41 -154 146 -248 234 -93 88 -220 209 -281 268 -60 60 -115 108 -122 108 -6 0
-25 -15 -41 -32z"/>
<path d="M3710 1718 c-30 -28 -133 -126 -229 -217 -95 -91 -185 -177 -200
-190 -92 -84 -241 -235 -241 -245 0 -19 56 -68 73 -64 16 3 134 113 537 498
94 91 176 167 181 168 18 7 8 38 -22 70 -16 17 -33 32 -37 32 -4 0 -32 -24
-62 -52z"/>
<path d="M841 5133 c-52 -26 -91 -87 -91 -143 0 -40 5 -52 32 -79 44 -43 88
-42 171 4 69 38 104 44 114 19 16 -42 -49 -114 -103 -114 -21 0 -24 -5 -24
-40 0 -37 2 -40 28 -40 45 0 114 41 150 90 31 40 34 49 29 94 -4 40 -11 55
-37 79 -29 26 -38 29 -85 25 -37 -3 -68 -14 -102 -36 -54 -35 -72 -39 -91 -20
-18 18 -15 33 17 67 18 19 39 31 55 31 24 0 26 4 26 40 0 37 -2 40 -27 40 -16
0 -43 -8 -62 -17z"/>
<path d="M5047 5070 c-89 -48 -139 -120 -139 -200 0 -58 21 -101 69 -137 30
-23 46 -28 92 -27 115 2 219 94 236 210 8 50 -26 120 -74 151 -45 30 -131 31
-184 3z m132 -65 c52 -26 61 -85 24 -142 -21 -32 -102 -83 -132 -83 -59 0
-103 66 -82 119 21 49 109 121 149 121 7 0 26 -7 41 -15z"/>
<path d="M5450 4619 c-41 -23 -109 -59 -150 -82 -120 -65 -121 -66 -104 -111
10 -26 31 -19 137 40 54 30 101 54 103 52 2 -2 -26 -55 -62 -118 -73 -130 -80
-150 -64 -179 13 -26 36 -27 77 -1 32 19 100 57 223 123 68 37 81 58 55 91
-14 19 -17 18 -87 -18 -40 -21 -88 -47 -106 -58 -18 -11 -35 -18 -37 -16 -3 2
14 38 38 79 23 41 55 99 71 130 28 54 29 56 11 82 -9 15 -20 27 -24 27 -3 0
-40 -19 -81 -41z"/>
<path d="M335 4419 c-9 -17 -15 -34 -13 -39 2 -5 45 -52 97 -105 l94 -95 -141
0 c-132 0 -142 -1 -152 -21 -19 -34 -7 -50 60 -79 36 -15 112 -49 170 -74 58
-25 112 -46 122 -46 10 0 19 11 23 31 4 17 5 32 3 33 -1 1 -46 21 -98 44 l-95
42 123 0 c84 0 122 4 122 11 0 7 -31 45 -70 85 -38 41 -70 78 -70 84 0 5 33
-6 74 -24 112 -51 111 -51 126 -16 8 18 9 35 4 40 -8 8 -350 160 -359 160 -3
0 -12 -14 -20 -31z"/>
<path d="M2880 3970 c0 -34 3 -40 21 -40 23 0 23 5 -16 -113 -12 -37 -25 -70
-28 -73 -3 -3 -24 24 -47 60 l-43 66 -78 0 -79 0 0 -35 c0 -31 3 -35 26 -35
30 0 32 9 -31 -152 -47 -120 -52 -128 -77 -128 -26 0 -28 -3 -28 -40 l0 -41
83 3 c82 3 82 3 85 31 2 16 -1 34 -7 41 -8 10 0 40 32 115 23 57 46 104 51
104 4 1 23 -23 42 -54 l35 -55 -49 -140 c-41 -116 -52 -140 -70 -142 -18 -3
-22 -10 -22 -38 l0 -34 90 0 90 0 0 35 c0 29 -4 35 -21 35 -23 0 -24 -4 20
115 l27 76 45 -70 c24 -39 49 -70 54 -71 6 0 29 29 53 65 23 36 46 65 51 65 6
0 40 -96 59 -167 2 -7 -4 -13 -12 -13 -12 0 -16 -10 -16 -35 l0 -35 91 0 90 0
-3 33 c-2 24 -8 33 -25 35 -24 4 -20 -5 -78 162 l-43 126 37 57 c20 31 38 57
41 57 3 0 24 -46 47 -103 36 -87 41 -109 36 -149 l-6 -48 87 0 86 0 0 40 c0
38 -2 40 -30 40 -16 0 -30 1 -30 3 0 1 -24 63 -54 137 l-54 135 29 3 c26 3 29
7 29 38 l0 34 -80 0 -80 0 -33 -46 c-67 -97 -59 -98 -93 7 -30 93 -30 94 -10
99 16 5 21 14 21 40 l0 35 -107 3 -108 3 0 -41z m143 -240 c30 -97 29 -106
-21 -168 l-18 -23 -32 49 -32 49 31 92 c17 50 34 91 37 91 4 0 20 -41 35 -90z"/>
<path d="M2005 3883 c-16 -9 -56 -20 -88 -24 -32 -4 -61 -10 -65 -13 -3 -4 2
-30 12 -58 18 -51 18 -51 -5 -82 -52 -69 -88 -131 -94 -157 -9 -42 21 -98 62
-115 18 -8 33 -18 33 -22 0 -14 57 -42 87 -42 15 0 37 -7 47 -15 27 -20 119
-20 136 0 7 8 26 15 42 15 31 0 88 28 88 43 0 4 13 13 30 18 16 6 39 26 51 45
30 48 20 88 -46 185 l-55 81 15 35 c28 67 16 82 -65 83 -19 0 -50 9 -68 20
-39 24 -77 25 -117 3z m75 -93 c41 -22 180 -226 180 -265 0 -24 -25 -18 -40
10 -7 14 -19 25 -27 25 -7 0 -13 5 -13 11 0 5 5 7 12 3 7 -5 8 -3 3 5 -16 27
-23 -7 -10 -54 12 -44 11 -51 -3 -62 -27 -22 -41 -14 -49 28 -11 55 -27 50
-31 -10 -3 -53 -21 -69 -62 -56 -16 5 -20 15 -20 55 0 38 -3 48 -14 44 -8 -3
-17 -21 -20 -40 -4 -19 -13 -34 -20 -34 -26 0 -36 26 -30 81 5 53 5 54 -13 33
-10 -12 -23 -30 -29 -40 -10 -16 -14 -17 -25 -6 -11 10 -10 21 11 60 37 72
155 222 175 222 3 0 15 -4 25 -10z"/>
<path d="M2010 3579 c0 -5 5 -7 10 -4 6 3 10 8 10 11 0 2 -4 4 -10 4 -5 0 -10
-5 -10 -11z"/>
<path d="M3860 3883 c-13 -9 -51 -20 -83 -24 -33 -4 -63 -11 -68 -16 -6 -6 -4
-28 6 -58 l17 -48 -58 -85 c-70 -101 -76 -143 -28 -193 15 -16 32 -29 37 -29
5 0 25 -13 44 -30 22 -20 45 -30 66 -30 18 0 41 -7 51 -15 11 -8 41 -15 66
-15 25 0 55 7 66 15 10 8 35 15 55 15 27 0 46 8 69 30 18 17 38 30 45 30 7 0
25 14 39 31 43 50 36 89 -33 193 -58 86 -59 90 -45 117 33 64 15 88 -66 89
-19 0 -48 9 -65 20 -37 24 -83 26 -115 3z m70 -93 c20 -11 119 -137 158 -201
12 -20 22 -46 22 -58 0 -27 -27 -28 -35 -1 -3 11 -10 20 -15 20 -4 0 -11 10
-15 23 -12 38 -17 -4 -6 -54 8 -34 7 -47 -4 -58 -20 -20 -42 -7 -50 31 -3 18
-9 41 -12 52 -9 32 -23 -4 -23 -61 0 -48 -2 -53 -25 -59 -34 -8 -55 11 -55 52
0 43 -25 46 -33 4 -7 -32 -27 -39 -47 -15 -9 10 -9 26 -2 62 6 26 8 50 5 53
-5 5 -28 -21 -49 -56 -9 -15 -15 -16 -24 -7 -10 9 -8 21 9 55 32 66 159 228
178 228 2 0 13 -5 23 -10z"/>
<path d="M3865 3581 c-3 -5 -1 -12 5 -16 5 -3 10 1 10 9 0 18 -6 21 -15 7z"/>
<path d="M3850 3540 c0 -5 5 -10 10 -10 6 0 10 5 10 10 0 6 -4 10 -10 10 -5 0
-10 -4 -10 -10z"/>
<path d="M5690 3743 c-102 -19 -186 -36 -188 -37 -6 -7 28 -158 42 -185 9 -16
33 -43 53 -58 33 -25 44 -28 117 -27 118 0 182 43 207 134 15 58 -7 204 -31
206 -8 1 -98 -14 -200 -33z m158 -106 c5 -83 -45 -127 -143 -127 -37 0 -52 5
-74 28 -23 23 -51 98 -39 106 7 5 224 44 238 42 11 -1 16 -15 18 -49z"/>
<path d="M320 3739 c-91 -15 -177 -28 -193 -29 -28 0 -47 -28 -47 -68 0 -20
323 -217 355 -217 15 0 21 8 23 31 3 27 -2 35 -35 55 -21 12 -39 23 -40 23 -2
1 14 89 22 122 4 17 14 22 50 27 25 2 47 6 49 8 2 2 6 21 10 42 8 45 25 44
-194 6z m4 -116 c-4 -21 -8 -39 -9 -41 -5 -5 -115 52 -115 59 0 8 38 15 98 17
33 2 33 2 26 -35z"/>
<path d="M360 3141 l0 -101 -162 -2 -163 -3 -3 -38 -3 -37 203 2 203 3 0 135
0 135 -37 3 -38 3 0 -100z"/>
<path d="M5570 3062 l0 -142 35 0 35 0 0 63 c0 34 3 79 6 100 7 37 7 37 55 37
l49 0 0 -60 0 -60 34 0 c34 0 35 0 41 55 7 54 8 55 41 55 l34 0 0 -95 0 -95
40 0 40 0 0 135 0 135 -98 0 c-55 0 -147 3 -205 7 l-107 6 0 -141z"/>
<path d="M413 2762 c-18 -2 -33 -6 -33 -9 0 -3 7 -45 16 -94 9 -49 15 -92 13
-94 -3 -2 -74 -17 -159 -32 l-155 -29 2 -33 c0 -18 4 -35 7 -38 6 -6 372 58
388 68 11 7 -27 248 -41 259 -3 3 -21 4 -38 2z"/>
<path d="M5732 2640 c-112 -16 -205 -30 -207 -32 -2 -1 -6 -19 -9 -38 l-7 -35
174 -102 c96 -57 181 -103 190 -103 13 0 17 9 17 38 l0 38 -125 69 c-91 50
-120 71 -108 76 10 3 76 12 146 19 121 13 129 15 138 38 11 28 12 62 2 61 -5
-1 -99 -14 -211 -29z"/>
<path d="M507 2288 c-17 -13 -17 -18 12 -98 17 -47 30 -89 29 -95 -3 -12 -69
-36 -84 -31 -5 2 -16 23 -24 46 -13 39 -16 41 -44 36 -16 -4 -32 -9 -35 -11
-5 -5 9 -63 23 -95 5 -11 -3 -19 -26 -28 -18 -6 -35 -8 -39 -4 -4 4 -19 39
-34 77 -34 86 -37 89 -70 81 -24 -6 -27 -11 -22 -39 4 -27 73 -215 83 -225 3
-4 56 16 272 100 59 23 102 45 102 53 0 7 -20 64 -44 127 -46 118 -61 133 -99
106z"/>
<path d="M5401 2178 c-6 -17 -8 -35 -4 -39 5 -3 44 -20 88 -36 44 -17 125 -47
179 -68 96 -36 100 -37 113 -19 31 43 16 54 -167 125 -96 38 -180 68 -187 69
-6 0 -16 -14 -22 -32z"/>
<path d="M5292 1930 c-18 -30 -15 -51 15 -82 l28 -29 -29 -52 c-43 -77 -40
-75 -93 -66 -38 8 -48 6 -59 -9 -7 -9 -14 -26 -14 -37 0 -18 17 -23 183 -53
100 -19 193 -36 207 -38 20 -4 29 1 43 25 11 19 15 36 10 45 -18 32 -259 315
-268 315 -6 1 -16 -8 -23 -19z m176 -276 c-5 -4 -85 10 -115 21 -9 3 -7 14 9
41 l21 36 45 -46 c24 -26 42 -49 40 -52z"/>
<path d="M650 1680 l-125 -79 -22 27 c-12 15 -25 35 -28 45 -8 22 -24 21 -55
-3 -21 -16 -23 -22 -13 -37 7 -10 38 -61 69 -113 77 -127 77 -127 109 -110 30
16 31 35 5 75 -11 17 -20 35 -20 41 0 6 61 48 135 93 74 46 135 88 135 94 -1
21 -27 47 -46 46 -10 0 -75 -36 -144 -79z"/>
<path d="M5005 1455 c-53 -19 -120 -90 -129 -137 -9 -50 14 -102 56 -128 47
-28 73 -25 161 20 62 32 82 38 93 29 8 -6 14 -19 14 -28 0 -23 -49 -68 -82
-76 -28 -7 -35 -26 -22 -59 12 -30 87 -12 135 33 22 20 49 82 49 111 0 56 -57
110 -116 110 -15 0 -55 -16 -90 -35 -83 -47 -124 -45 -124 5 0 23 64 80 96 86
32 6 34 9 34 45 0 44 -9 47 -75 24z"/>
<path d="M940 1413 c-67 -48 -74 -87 -34 -187 29 -74 29 -110 -2 -114 -29 -4
-74 50 -74 89 0 27 -2 29 -41 29 l-42 0 7 -47 c12 -86 99 -162 172 -149 40 8
94 66 94 102 0 14 -13 56 -30 94 -33 76 -36 90 -18 108 34 34 101 -17 113 -86
6 -40 9 -42 41 -42 33 0 34 1 34 40 0 117 -140 221 -220 163z"/>
<path d="M2645 485 c-22 -8 -48 -24 -57 -36 -22 -26 -23 -87 -2 -117 14 -21
14 -24 -10 -53 -17 -20 -26 -43 -26 -65 0 -95 83 -146 202 -124 93 18 138 90
103 164 -9 19 -23 37 -32 40 -12 5 -11 10 6 32 45 57 9 142 -67 164 -48 13
-68 12 -117 -5z m120 -75 c15 -17 16 -24 7 -45 -10 -22 -18 -25 -60 -25 -52 0
-72 12 -72 45 0 32 19 45 65 45 29 0 47 -6 60 -20z m9 -161 c53 -42 16 -99
-64 -99 -61 0 -92 22 -88 63 5 56 99 78 152 36z"/>
<path d="M3426 477 c-60 -33 -79 -75 -84 -176 -3 -75 0 -92 20 -131 29 -56 75
-84 139 -83 96 1 151 77 151 207 -1 82 -12 120 -50 159 -25 26 -76 47 -117 47
-11 0 -38 -10 -59 -23z m119 -69 c53 -46 55 -179 4 -230 -34 -34 -69 -36 -106
-4 -27 23 -28 28 -28 114 0 82 2 93 24 116 30 32 71 34 106 4z"/>
<path d="M2393 471 c-7 -11 -26 -22 -43 -26 -23 -5 -30 -12 -30 -31 0 -21 5
-24 35 -24 l35 0 0 -150 0 -150 35 0 35 0 0 200 0 200 -28 0 c-16 0 -32 -8
-39 -19z"/>
<path d="M3042 366 c-81 -98 -102 -131 -102 -155 l0 -31 105 0 105 0 0 -46 c0
-45 0 -45 33 -42 30 3 32 6 35 45 3 38 6 43 28 43 20 0 24 5 24 30 0 25 -4 30
-25 30 l-25 0 0 125 0 125 -38 0 c-37 0 -42 -5 -140 -124z m108 -51 l0 -75
-60 0 c-33 0 -60 2 -60 5 0 6 111 145 116 145 2 0 4 -34 4 -75z"/>
</g>
</svg>
